# xmcd CD database file
#
# Track frame offsets:
#	150
#	20247
#	40567
#	58650
#	77670
#	92382
#	112362
#	132937
#	149915
#	170075
#	189347
#	209932
#
# Disc length: 3115 seconds
#
# Revision: 3
# Processed by: cddbd v1.5.2PL0 Copyright (c) Steve Scherf et al.
# Submitted via: CDex 1.50
#
DISCID=b80c290c
DTITLE=As Yet - Az Yet
DYEAR=1995
DGENRE=R&B
TTITLE0=Last Night
TTITLE1=Saved For Someone Else
TTITLE2=Care For Me
TTITLE3=Every Little Bit Of My Heart
TTITLE4=Hard To Say I'm Sorry
TTITLE5=That's All I Want
TTITLE6=Secrets
TTITLE7=Through My Heart (The Arrow)
TTITLE8=I Don't Want To Be Lonely
TTITLE9=Sadder Than Blue
TTITLE10=Inseparable Lovers
TTITLE11=Time To End The Story
EXTD=YEAR: 1995
EXTT0=
EXTT1=
EXTT2=
EXTT3=
EXTT4=
EXTT5=
EXTT6=
EXTT7=
EXTT8=
EXTT9=
EXTT10=
EXTT11=
PLAYORDER=
